# xmcd
# Track frame offsets:
# 150
# 13837
# 31985
# 49462
# 66137
# 82037
# 99775
# 114940
# 129000
# 147275
#
# Disc length: 2213 seconds
# Revision: 0
# Processed by: cddbd v1.4PL0 Copyright (c) Steve Scherf et al.
# Submitted via: VisiTrax 2.9.5.180 - For more info visit www.synapsa.com
#
DISCID=7c08a30a
DTITLE=Sherry Kennedy - Ordinary woman
DYEAR=1996
DGENRE=
TTITLE0=Goin' thru' the motions
TTITLE1=The boy back home
TTITLE2=She'll give you something
TTITLE3=Nobody loves me like the blues
TTITLE4=Love and understanding
TTITLE5=Slow healing heart
TTITLE6=When she said goodbye
TTITLE7=When I'm in love
TTITLE8=Never too late
TTITLE9=Ordinary woman
EXTD=
EXTT0=
EXTT1=
EXTT2=
EXTT3=
EXTT4=
EXTT5=
EXTT6=
EXTT7=
EXTT8=
EXTT9=
PLAYORDER=
